<?xml version="1.0" encoding="UTF-8" standalone="no"?>
<!-- Generator: Adobe Illustrator 15.1.0, SVG Export Plug-In . SVG Version: 6.00 Build 0)  -->

<svg
   xmlns:dc="http://purl.org/dc/elements/1.1/"
   xmlns:cc="http://creativecommons.org/ns#"
   xmlns:rdf="http://www.w3.org/1999/02/22-rdf-syntax-ns#"
   xmlns:svg="http://www.w3.org/2000/svg"
   xmlns="http://www.w3.org/2000/svg"
   xmlns:xlink="http://www.w3.org/1999/xlink"
   xmlns:sodipodi="http://sodipodi.sourceforge.net/DTD/sodipodi-0.dtd"
   xmlns:inkscape="http://www.inkscape.org/namespaces/inkscape"
   version="1.1"
   id="Ebene_1"
   x="0px"
   y="0px"
   width="256"
   height="256"
   viewBox="0 0 256.00001 256.00001"
   xml:space="preserve"
   sodipodi:docname="logo-erste-bank.svg"
   inkscape:version="0.92.3 (2405546, 2018-03-11)"><metadata
   id="metadata851"><rdf:RDF><cc:Work
       rdf:about=""><dc:format>image/svg+xml</dc:format><dc:type
         rdf:resource="http://purl.org/dc/dcmitype/StillImage" /><dc:title></dc:title></cc:Work></rdf:RDF></metadata><defs
   id="defs849" /><sodipodi:namedview
   pagecolor="#ffffff"
   bordercolor="#666666"
   borderopacity="1"
   objecttolerance="10"
   gridtolerance="10"
   guidetolerance="10"
   inkscape:pageopacity="0"
   inkscape:pageshadow="2"
   inkscape:window-width="2560"
   inkscape:window-height="1377"
   id="namedview847"
   showgrid="false"
   inkscape:zoom="1.938938"
   inkscape:cx="218.64127"
   inkscape:cy="-10.474081"
   inkscape:window-x="1912"
   inkscape:window-y="-8"
   inkscape:window-maximized="1"
   inkscape:current-layer="Ebene_1" />
<g
   id="g844"
   transform="matrix(6.9062392,0,0,6.9062392,-682.45314,1.368576)">
	<defs
   id="defs835">
		<rect
   id="SVGID_1_"
   x="-231.073"
   y="-345.474"
   width="595.28003"
   height="841.89001" />
	</defs>
	<clipPath
   id="SVGID_2_">
		<use
   xlink:href="#SVGID_1_"
   style="overflow:visible"
   id="use837"
   x="0"
   y="0"
   width="100%"
   height="100%" />
	</clipPath>
	<path
   style="fill:#e30613"
   d="m 114.1,8.231 c -0.926,-0.942 -1.391,-2.079 -1.391,-3.41 0,-1.301 0.465,-2.441 1.377,-3.383 C 115.012,0.486 116.133,0 117.434,0 c 1.277,0 2.395,0.476 3.322,1.425 0.932,0.943 1.406,2.095 1.406,3.396 0,1.331 -0.465,2.468 -1.395,3.41 -0.93,0.949 -2.057,1.423 -3.334,1.423 -1.3,0 -2.421,-0.474 -3.333,-1.423 m 19.027,10.887 v -2.932 c 0,-2.771 -2.248,-5.025 -5.021,-5.025 H 106.76 c -2.773,0 -5.02,2.254 -5.02,5.025 v 11.041 h 23.811 v 1.674 H 101.74 v 2.927 c 0,2.773 2.246,5.022 5.02,5.022 h 21.346 c 2.773,0 5.021,-2.249 5.021,-5.022 V 20.79 h -23.809 v -1.672 z"
   clip-path="url(#SVGID_2_)"
   id="path840"
   inkscape:connector-curvature="0" />
	
</g>
</svg>